<mxfile host="Electron" agent="Mozilla/5.0 (X11; Linux x86_64) AppleWebKit/537.36 (KHTML, like Gecko) draw.io/24.7.17 Chrome/130.0.6723.191 Electron/33.4.2 Safari/537.36" version="24.7.17">
  <diagram name="Page-1" id="5Q2bsmtAaErxtfXgsVmu">
    <mxGraphModel dx="1390" dy="735" grid="1" gridSize="10" guides="1" tooltips="1" connect="1" arrows="1" fold="1" page="1" pageScale="1" pageWidth="50000" pageHeight="50000" math="0" shadow="0">
      <root>
        <mxCell id="0" />
        <mxCell id="1" parent="0" />
        <mxCell id="XtLfDpK3IPSbcYS-EjGs-10" value="You" style="image;points=[];aspect=fixed;html=1;align=center;shadow=0;dashed=0;image=img/lib/allied_telesis/computer_and_terminals/Personal_Computer_with_Server.svg;" vertex="1" parent="1">
          <mxGeometry x="430" y="325.8" width="62.400000000000006" height="62.400000000000006" as="geometry" />
        </mxCell>
        <mxCell id="XtLfDpK3IPSbcYS-EjGs-11" value="Destination&lt;div&gt;Website&lt;/div&gt;" style="image;points=[];aspect=fixed;html=1;align=center;shadow=0;dashed=0;image=img/lib/allied_telesis/storage/Datacenter_Server_Half_Rack_ToR.svg;" vertex="1" parent="1">
          <mxGeometry x="1070" y="299.7" width="88.2" height="114.6" as="geometry" />
        </mxCell>
        <mxCell id="XtLfDpK3IPSbcYS-EjGs-14" value="" style="swimlane;startSize=0;" vertex="1" parent="1">
          <mxGeometry x="580" y="230" width="250" height="280" as="geometry" />
        </mxCell>
        <mxCell id="XtLfDpK3IPSbcYS-EjGs-1" value="" style="image;points=[];aspect=fixed;html=1;align=center;shadow=0;dashed=0;image=img/lib/allied_telesis/computer_and_terminals/Server_Desktop.svg;" vertex="1" parent="XtLfDpK3IPSbcYS-EjGs-14">
          <mxGeometry x="23.700000000000045" y="98" width="42.599999999999994" height="54" as="geometry" />
        </mxCell>
        <mxCell id="XtLfDpK3IPSbcYS-EjGs-2" value="" style="image;points=[];aspect=fixed;html=1;align=center;shadow=0;dashed=0;image=img/lib/allied_telesis/computer_and_terminals/Server_Desktop.svg;" vertex="1" parent="XtLfDpK3IPSbcYS-EjGs-14">
          <mxGeometry x="23.700000000000045" y="18" width="42.599999999999994" height="54" as="geometry" />
        </mxCell>
        <mxCell id="XtLfDpK3IPSbcYS-EjGs-3" value="" style="image;points=[];aspect=fixed;html=1;align=center;shadow=0;dashed=0;image=img/lib/allied_telesis/computer_and_terminals/Server_Desktop.svg;" vertex="1" parent="XtLfDpK3IPSbcYS-EjGs-14">
          <mxGeometry x="23.700000000000045" y="178" width="42.599999999999994" height="54" as="geometry" />
        </mxCell>
        <mxCell id="XtLfDpK3IPSbcYS-EjGs-4" value="" style="image;points=[];aspect=fixed;html=1;align=center;shadow=0;dashed=0;image=img/lib/allied_telesis/computer_and_terminals/Server_Desktop.svg;" vertex="1" parent="XtLfDpK3IPSbcYS-EjGs-14">
          <mxGeometry x="103.70000000000005" y="98" width="42.599999999999994" height="54" as="geometry" />
        </mxCell>
        <mxCell id="XtLfDpK3IPSbcYS-EjGs-5" value="" style="image;points=[];aspect=fixed;html=1;align=center;shadow=0;dashed=0;image=img/lib/allied_telesis/computer_and_terminals/Server_Desktop.svg;" vertex="1" parent="XtLfDpK3IPSbcYS-EjGs-14">
          <mxGeometry x="103.70000000000005" y="18" width="42.599999999999994" height="54" as="geometry" />
        </mxCell>
        <mxCell id="XtLfDpK3IPSbcYS-EjGs-6" value="" style="image;points=[];aspect=fixed;html=1;align=center;shadow=0;dashed=0;image=img/lib/allied_telesis/computer_and_terminals/Server_Desktop.svg;" vertex="1" parent="XtLfDpK3IPSbcYS-EjGs-14">
          <mxGeometry x="103.70000000000005" y="178" width="42.599999999999994" height="54" as="geometry" />
        </mxCell>
        <mxCell id="XtLfDpK3IPSbcYS-EjGs-7" value="" style="image;points=[];aspect=fixed;html=1;align=center;shadow=0;dashed=0;image=img/lib/allied_telesis/computer_and_terminals/Server_Desktop.svg;" vertex="1" parent="XtLfDpK3IPSbcYS-EjGs-14">
          <mxGeometry x="183.70000000000005" y="98" width="42.599999999999994" height="54" as="geometry" />
        </mxCell>
        <mxCell id="XtLfDpK3IPSbcYS-EjGs-8" value="" style="image;points=[];aspect=fixed;html=1;align=center;shadow=0;dashed=0;image=img/lib/allied_telesis/computer_and_terminals/Server_Desktop.svg;" vertex="1" parent="XtLfDpK3IPSbcYS-EjGs-14">
          <mxGeometry x="183.70000000000005" y="18" width="42.6" height="54" as="geometry" />
        </mxCell>
        <mxCell id="XtLfDpK3IPSbcYS-EjGs-9" value="" style="image;points=[];aspect=fixed;html=1;align=center;shadow=0;dashed=0;image=img/lib/allied_telesis/computer_and_terminals/Server_Desktop.svg;" vertex="1" parent="XtLfDpK3IPSbcYS-EjGs-14">
          <mxGeometry x="183.70000000000005" y="178" width="42.599999999999994" height="54" as="geometry" />
        </mxCell>
        <mxCell id="XtLfDpK3IPSbcYS-EjGs-15" value="Tor Network" style="text;html=1;align=center;verticalAlign=middle;resizable=0;points=[];autosize=1;strokeColor=none;fillColor=none;" vertex="1" parent="XtLfDpK3IPSbcYS-EjGs-14">
          <mxGeometry x="80" y="250" width="90" height="30" as="geometry" />
        </mxCell>
        <mxCell id="XtLfDpK3IPSbcYS-EjGs-16" value="&lt;b&gt;&lt;font color=&quot;#f93e3e&quot;&gt;Static Proxy&lt;/font&gt;&lt;/b&gt;" style="image;points=[];aspect=fixed;html=1;align=center;shadow=0;dashed=0;image=img/lib/allied_telesis/storage/Datacenter_Server_Half_Rack_ToR.svg;imageBackground=none;" vertex="1" parent="1">
          <mxGeometry x="910" y="299.70000000000005" width="88.2" height="114.6" as="geometry" />
        </mxCell>
        <mxCell id="XtLfDpK3IPSbcYS-EjGs-18" value="" style="shape=flexArrow;endArrow=classic;html=1;rounded=0;" edge="1" parent="1">
          <mxGeometry width="50" height="50" relative="1" as="geometry">
            <mxPoint x="510" y="359.71" as="sourcePoint" />
            <mxPoint x="560" y="359.71" as="targetPoint" />
          </mxGeometry>
        </mxCell>
        <mxCell id="XtLfDpK3IPSbcYS-EjGs-19" value="" style="shape=flexArrow;endArrow=classic;html=1;rounded=0;" edge="1" parent="1">
          <mxGeometry width="50" height="50" relative="1" as="geometry">
            <mxPoint x="850" y="356.65999999999997" as="sourcePoint" />
            <mxPoint x="900" y="356.65999999999997" as="targetPoint" />
          </mxGeometry>
        </mxCell>
        <mxCell id="XtLfDpK3IPSbcYS-EjGs-20" value="" style="shape=flexArrow;endArrow=classic;html=1;rounded=0;" edge="1" parent="1">
          <mxGeometry width="50" height="50" relative="1" as="geometry">
            <mxPoint x="1010" y="356.65999999999997" as="sourcePoint" />
            <mxPoint x="1060" y="356.65999999999997" as="targetPoint" />
          </mxGeometry>
        </mxCell>
      </root>
    </mxGraphModel>
  </diagram>
</mxfile>
